<?xml version="1.0" standalone="no"?>
<!DOCTYPE svg PUBLIC "-//W3C//DTD SVG 20010904//EN"
 "http://www.w3.org/TR/2001/REC-SVG-20010904/DTD/svg10.dtd">
<svg version="1.0" xmlns="http://www.w3.org/2000/svg"
 width="255.000000pt" height="255.000000pt" viewBox="0 0 255.000000 255.000000"
 preserveAspectRatio="xMidYMid meet">
<metadata>
Created by potrace 1.11, written by Peter Selinger 2001-2013
</metadata>
<g transform="translate(0.000000,255.000000) scale(0.100000,-0.100000)"
fill="#000000" stroke="none">
<path d="M330 2474 c-10 -25 -26 -39 -67 -59 -29 -14 -60 -25 -69 -25 -8 0
-13 -4 -9 -9 3 -6 -3 -9 -12 -9 -10 1 -34 -5 -53 -14 -52 -23 -74 -31 -82 -30
-5 1 -8 -3 -8 -8 0 -5 -7 -10 -15 -10 -8 0 -15 -7 -15 -16 0 -17 7 -17 70 8
19 7 38 17 41 22 4 5 12 5 18 2 6 -4 11 -2 11 3 0 6 7 11 15 11 8 0 23 4 33 9
35 19 87 40 90 37 1 -2 -2 -16 -8 -31 -6 -16 -9 -34 -6 -41 3 -8 2 -15 -2 -18
-4 -2 -5 -41 -2 -86 3 -45 2 -84 -1 -86 -4 -2 -4 -15 -1 -29 4 -21 0 -25 -19
-26 -112 -2 -167 -7 -179 -14 -9 -6 -11 -4 -5 5 6 10 4 12 -9 7 -10 -4 -24 -7
-32 -7 -9 0 -14 -11 -14 -28 l0 -28 73 2 c39 1 77 3 82 4 19 4 35 0 35 -10 0
-5 -7 -10 -15 -10 -8 0 -15 -7 -15 -15 0 -8 -7 -15 -15 -15 -8 0 -15 -4 -15
-9 0 -5 -11 -16 -25 -25 -24 -16 -26 -15 -62 21 -37 35 -38 36 -41 13 -2 -12
2 -27 10 -31 7 -5 9 -9 4 -9 -5 0 1 -9 14 -20 23 -20 23 -21 4 -35 -10 -8 -22
-15 -26 -15 -11 0 -10 -50 0 -50 5 0 22 11 38 25 16 14 34 25 39 25 10 -1 95
-74 95 -82 0 -2 -24 -3 -52 -1 -138 9 -128 11 -128 -19 0 -27 11 -34 49 -29 7
2 10 -2 6 -8 -4 -8 2 -8 19 -1 19 7 26 6 26 -3 0 -7 3 -8 8 -2 10 14 32 17 32
5 0 -7 6 -7 19 0 14 7 22 7 26 0 4 -6 11 -8 16 -4 7 4 9 -43 8 -130 -2 -87 -7
-136 -13 -136 -6 0 -5 -4 3 -9 9 -6 10 -11 2 -15 -7 -4 -7 -15 -1 -31 6 -16 6
-27 -1 -31 -7 -4 -7 -10 0 -18 6 -7 8 -16 4 -20 -4 -4 -8 -42 -9 -84 -1 -42
-5 -169 -9 -282 -4 -113 -8 -237 -9 -277 -1 -39 -4 -75 -8 -78 -4 -4 -3 -18 2
-31 5 -13 6 -24 2 -24 -4 0 -8 -44 -8 -98 -1 -53 -3 -164 -5 -247 l-4 -150 38
-3 c22 -2 37 1 37 8 0 6 -5 8 -12 4 -7 -5 -8 -3 -3 6 5 8 10 50 11 95 1 44 2
97 3 118 l1 37 65 -65 c58 -57 64 -67 53 -84 -7 -11 -16 -17 -20 -15 -4 3 -8
-3 -8 -12 0 -10 -3 -14 -6 -11 -4 4 -19 -9 -34 -28 -15 -19 -30 -32 -34 -28
-3 3 -6 -1 -6 -10 0 -31 38 -18 86 28 25 25 50 45 56 45 5 0 6 5 3 10 -16 26
16 4 65 -45 54 -55 54 -55 115 -55 l61 0 -1 100 c0 55 -4 100 -8 100 -4 0 -3
9 3 20 8 15 8 20 -2 20 -9 0 -9 3 2 10 8 5 11 10 5 10 -6 0 -11 46 -12 113 -4
254 -8 322 -18 329 -6 5 -5 8 4 8 10 0 11 3 2 14 -9 10 -9 16 -1 21 8 5 8 11
-1 21 -9 11 -9 14 1 14 9 0 9 4 2 13 -7 8 -7 18 -2 27 5 8 6 19 2 25 -4 5 -8
39 -8 75 -1 36 -5 162 -8 280 -4 118 -8 249 -10 290 -1 41 -6 81 -10 89 -6 10
-5 12 2 7 16 -9 15 7 0 22 -9 9 -9 12 0 12 7 0 12 5 12 11 0 5 -4 8 -8 5 -5
-3 -9 1 -9 9 0 13 17 20 40 16 4 0 7 4 7 10 0 8 5 7 16 -2 13 -10 17 -10 25 2
5 8 9 9 9 4 0 -12 46 -13 57 -2 3 4 13 1 21 -6 13 -10 14 -9 7 3 -8 13 -7 13
8 1 9 -7 17 -9 17 -5 0 5 20 10 45 10 30 1 42 -2 38 -10 -5 -8 -3 -8 8 0 8 7
60 13 119 14 58 2 128 3 155 4 28 1 56 5 63 9 6 5 12 5 12 0 0 -4 11 -8 25 -8
14 0 25 2 25 5 0 3 33 5 73 5 39 0 100 2 135 5 39 4 62 2 62 -5 0 -7 3 -7 8 0
4 6 55 11 115 11 85 2 107 -1 107 -12 0 -8 -1 -16 -2 -18 -2 -2 5 -13 15 -24
10 -11 17 -26 16 -34 -3 -26 1 -39 14 -37 6 1 17 1 22 0 7 -1 11 -60 11 -165
-1 -98 -4 -162 -10 -159 -5 4 -6 0 0 -8 12 -20 13 -92 1 -107 -12 -15 -16
-142 -4 -142 4 0 4 -8 -1 -18 -12 -21 -5 -42 14 -42 8 0 15 -3 15 -7 9 -60 7
-69 -22 -95 -17 -16 -27 -28 -22 -28 4 0 1 -4 -7 -10 -21 -13 -24 -67 -6 -95
21 -32 20 -41 -4 -65 -11 -11 -20 -18 -20 -15 0 3 -9 -4 -21 -14 -12 -10 -26
-23 -31 -27 -6 -5 -114 -7 -239 -4 -126 3 -229 2 -229 -1 0 -4 -8 -6 -17 -5
-11 0 -18 -6 -18 -19 0 -11 6 -20 14 -20 20 0 27 -26 23 -85 -3 -42 -7 -50
-24 -50 -14 0 -18 -5 -14 -16 3 -9 6 -19 6 -22 0 -4 55 -7 121 -7 79 0 123 -4
126 -11 2 -6 10 -11 18 -11 8 0 12 4 10 8 -9 14 35 15 425 12 217 -2 406 -3
420 -3 124 1 199 4 195 8 -2 3 0 13 5 23 8 14 6 18 -12 21 -19 3 -22 10 -23
62 -2 50 1 59 16 63 12 3 19 14 19 29 l0 24 -212 1 c-117 1 -218 1 -223 0 -6
0 -37 24 -69 54 -58 55 -58 55 -45 88 8 17 12 40 10 51 -1 11 2 16 8 11 7 -4
10 2 8 16 -6 35 -23 33 -40 -4 -21 -44 -38 -58 -65 -52 -35 6 -44 15 -33 29 6
7 8 16 4 19 -3 4 -2 7 4 7 14 0 63 93 63 119 0 12 6 21 15 21 18 0 17 -6 19
108 1 51 -2 96 -6 98 -4 3 -13 14 -19 26 -6 11 -7 18 -2 15 14 -9 13 176 -1
185 -7 5 -7 8 -1 8 13 0 14 154 3 166 -11 11 12 34 33 34 11 0 20 3 20 8 1 4
3 18 4 32 1 13 8 26 14 28 6 2 9 8 5 13 -3 5 1 9 8 9 10 0 10 2 -1 9 -11 7 -9
13 8 30 17 17 25 19 41 11 15 -8 20 -8 20 1 0 8 4 9 13 0 8 -6 17 -7 21 -3 7
6 22 8 113 11 22 1 36 8 44 22 16 30 20 149 6 149 -9 0 -9 2 -1 8 13 8 -13 56
-33 59 -19 4 -268 13 -390 14 -80 1 -111 5 -106 13 4 6 0 5 -9 -2 -11 -9 -23
-10 -41 -3 -17 7 -28 6 -37 -2 -10 -9 -14 -9 -17 0 -3 9 -10 10 -24 3 -13 -7
-19 -7 -19 -1 0 7 -8 7 -24 1 -13 -5 -27 -6 -30 -2 -4 3 -48 8 -99 9 -50 2
-94 8 -98 14 -3 6 -8 10 -10 9 -11 -5 -59 13 -59 22 0 6 -7 8 -15 4 -8 -3 -15
-2 -15 2 0 4 -10 9 -22 9 -13 1 -24 7 -26 13 -2 5 -10 10 -17 10 -7 0 -26 7
-41 15 -16 8 -37 15 -46 15 -10 0 -18 4 -18 10 0 5 -16 12 -35 16 -19 3 -35
10 -35 14 0 4 -12 11 -27 15 -15 3 -31 12 -35 18 -5 8 -8 7 -8 -3 0 -13 -1
-13 -10 0 -5 8 -13 15 -17 15 -4 1 -17 6 -28 12 -21 12 -26 13 -51 13 -8 0
-12 5 -9 10 6 9 1 11 -37 14 -7 1 -15 3 -18 6 -3 3 -30 16 -60 29 -30 13 -78
35 -106 47 -28 13 -54 24 -57 24 -19 0 -116 54 -111 61 3 5 0 9 -5 9 -6 0 -11
9 -11 20 0 16 -7 20 -37 21 -21 0 -45 2 -54 4 -10 2 -21 -9 -29 -31z m20 -102
c0 -12 -3 -12 -15 -2 -8 7 -15 13 -15 15 0 1 7 2 15 2 8 0 15 -7 15 -15z m105
8 c3 -5 2 -10 -4 -10 -5 0 -13 5 -16 10 -3 6 -2 10 4 10 5 0 13 -4 16 -10z
m91 -11 c6 -5 13 -7 16 -4 3 3 11 -1 18 -10 7 -8 19 -15 27 -15 8 0 33 -9 56
-19 23 -11 44 -19 47 -19 3 -1 18 -7 34 -16 16 -8 34 -12 39 -9 6 3 7 1 3 -5
-4 -7 -2 -13 3 -13 18 -2 24 -5 61 -21 19 -8 52 -21 73 -28 20 -8 37 -18 37
-24 0 -5 3 -6 7 -3 3 4 12 2 20 -4 7 -6 13 -9 13 -6 0 4 21 -5 48 -18 26 -13
59 -27 75 -30 15 -4 27 -11 27 -16 0 -5 7 -9 15 -9 20 0 95 -33 95 -42 0 -4 7
-5 15 -2 8 4 15 1 15 -5 0 -6 -16 -10 -35 -9 -19 1 -32 5 -29 10 3 4 -7 3 -23
-3 -19 -7 -29 -7 -31 0 -2 6 -8 11 -13 11 -6 0 -7 -5 -3 -12 4 -7 3 -8 -5 -4
-6 4 -72 9 -146 11 -74 2 -139 6 -144 10 -6 3 -11 2 -11 -4 0 -6 -11 -6 -30
-1 -19 5 -30 5 -30 -1 0 -6 -6 -7 -12 -3 -7 5 -60 9 -118 9 -58 1 -114 5 -126
8 -21 7 -29 37 -10 37 8 0 8 3 1 8 -14 9 -13 65 0 74 7 5 6 8 0 8 -6 0 -11 9
-12 20 -1 13 2 18 9 14 7 -5 8 -2 2 7 -12 19 -13 78 -1 86 6 3 6 8 -1 12 -5 3
-12 16 -16 28 -6 19 -4 22 11 16 10 -3 23 -10 29 -14z m-87 -48 c9 -1 5 -10
-13 -26 -14 -13 -26 -29 -26 -35 0 -6 -4 -8 -10 -5 -5 3 -10 1 -10 -6 0 -6
-13 4 -30 22 -16 19 -30 39 -30 44 0 9 56 11 119 6z m-127 -61 c12 -11 18 -20
13 -20 -5 0 0 -6 10 -14 16 -12 17 -15 4 -29 -8 -8 -21 -24 -29 -36 -22 -32
-31 -25 -26 19 2 22 0 40 -5 40 -6 0 -7 6 -2 13 4 6 6 20 5 30 -4 22 4 22 30
-3z m144 -63 c1 -40 -1 -55 -6 -42 -5 11 -9 16 -9 11 -1 -14 -30 26 -31 41 0
13 30 53 40 53 3 0 6 -28 6 -63z m-55 -49 c7 -13 21 -31 32 -40 34 -30 17 -42
-57 -40 -38 1 -72 5 -77 7 -4 3 7 22 26 41 19 20 35 40 35 45 0 18 30 8 41
-13z m-11 -141 c0 -4 8 -4 18 1 9 5 25 7 35 3 14 -5 10 -13 -27 -49 l-45 -43
-40 39 c-23 22 -41 44 -41 48 0 5 23 9 50 9 28 0 50 -4 50 -8z m367 -43 c-23
-22 -45 -39 -49 -37 -5 2 -8 -1 -8 -7 0 -13 -42 15 -80 53 -14 13 -32 27 -40
30 -8 3 37 5 102 4 l116 -2 -41 -41z m248 31 c28 -1 51 -3 53 -4 7 -3 -62 -71
-72 -71 -17 0 -88 69 -81 79 3 6 15 7 28 5 12 -3 45 -7 72 -9z m-414 -48 c3
-4 20 -18 38 -31 l33 -25 -25 -25 c-14 -14 -22 -27 -19 -30 3 -3 -1 -6 -8 -6
-7 0 -23 -11 -36 -26 -13 -14 -25 -24 -25 -22 -1 2 -3 49 -4 106 l-3 103 21
-18 c12 -10 25 -21 28 -26z m696 29 c-1 -4 -13 -20 -27 -35 l-25 -26 -22 22
c-12 13 -27 23 -33 23 -5 0 -10 7 -10 15 0 11 13 14 59 12 33 -1 59 -6 58 -11z
m212 -16 c14 0 21 -6 21 -20 0 -24 -22 -26 -44 -4 -9 8 -16 12 -16 7 0 -10
-20 19 -20 30 0 4 9 3 19 -3 11 -5 29 -10 40 -10z m-1214 -10 c-3 -5 4 -12 16
-15 11 -4 18 -9 15 -12 -3 -4 2 -11 11 -18 14 -11 11 -17 -25 -53 -23 -23 -42
-41 -43 -39 -6 21 -6 44 2 58 6 12 5 20 -2 25 -8 4 -7 9 2 15 8 5 9 9 3 9 -8
0 -11 30 -5 47 1 1 8 0 16 -3 8 -4 13 -10 10 -14z m1521 7 c5 -4 2 -12 -6 -17
-25 -16 -59 -11 -69 9 -10 17 -7 19 28 17 22 0 43 -5 47 -9z m-1601 -6 c3 -5
2 -12 -2 -14 -5 -3 -8 -35 -7 -71 0 -36 -3 -66 -7 -66 -4 0 -26 18 -49 41
l-41 41 32 29 c18 16 37 29 41 29 5 0 6 5 3 10 -3 6 1 10 9 10 8 0 17 -4 21
-9z m279 -64 c1 -37 -1 -67 -4 -67 -3 0 -21 15 -41 34 l-37 33 32 36 c17 20
35 35 40 33 5 -1 9 -32 10 -69z m343 59 c-1 -6 -6 -14 -12 -18 -6 -5 -5 -8 3
-8 6 0 12 -5 12 -11 0 -5 -6 -7 -12 -3 -10 6 -10 4 0 -8 10 -12 10 -18 1 -23
-8 -6 -7 -10 2 -16 11 -7 11 -9 -1 -9 -13 0 -13 -1 0 -10 12 -8 13 -12 1 -19
-9 -6 -25 3 -52 27 -45 41 -47 48 -19 57 11 4 18 10 15 15 -3 5 4 11 15 15 11
3 20 10 20 14 0 4 7 8 14 8 8 0 14 -5 13 -11z m115 -72 c-9 -8 -14 -14 -10
-14 8 0 -51 -60 -59 -60 -4 0 -4 3 -1 6 4 3 2 19 -2 35 -5 16 -5 31 -1 34 10
6 8 46 -3 64 -6 10 -5 12 2 7 7 -4 12 -3 12 3 0 6 18 -6 40 -26 36 -33 38 -38
22 -49z m233 41 c23 -19 27 -27 17 -33 -8 -5 -13 -13 -12 -18 1 -4 -6 -11 -15
-14 -9 -3 -15 -10 -13 -15 2 -5 -4 -11 -12 -13 -12 -2 -15 11 -16 67 -1 50 2
67 10 60 6 -5 25 -20 41 -34z m162 -26 l2 -71 -22 19 c-43 36 -58 53 -46 53 7
0 10 3 6 6 -5 6 41 61 53 63 3 1 7 -31 7 -70z m338 61 c-3 -5 -2 -10 4 -10 13
0 41 -29 41 -42 0 -6 -11 -3 -25 6 -14 9 -25 13 -25 9 0 -5 -5 0 -11 11 -9 14
-8 20 2 27 18 11 22 11 14 -1z m335 0 c0 -19 -39 -31 -60 -18 -30 19 -24 28
20 28 22 0 40 -4 40 -10z m180 -14 c-14 -12 -26 -19 -28 -15 -2 5 -10 9 -17 9
-7 0 -15 7 -19 15 -4 12 4 15 42 15 l47 0 -25 -24z m-756 -17 c28 -24 33 -33
23 -42 -7 -7 -25 -23 -40 -36 l-27 -24 0 66 c0 37 2 67 5 67 2 0 20 -14 39
-31z m-359 -33 c2 -42 1 -44 -21 -34 -33 15 -37 37 -12 63 13 13 24 22 27 20
2 -3 5 -24 6 -49z m529 -9 c5 -42 -7 -48 -40 -19 -31 27 -35 52 -8 52 8 0 14
5 14 12 0 23 31 -18 34 -45z m248 13 c-5 -35 -12 -37 -36 -11 -16 18 -16 20 5
35 29 20 37 14 31 -24z m270 7 c10 -3 8 -10 -6 -26 -27 -30 -35 -26 -34 19 0
33 2 37 14 25 8 -7 19 -15 26 -18z m126 -7 c-1 -33 -6 -36 -32 -17 -18 13 -18
14 -1 35 23 26 34 20 33 -18z m-324 -8 c-8 -2 -12 -8 -9 -13 4 -5 1 -9 -4 -9
-12 0 -15 43 -4 53 3 4 12 -1 19 -11 10 -14 10 -18 -2 -20z m106 3 c0 -21 -2
-24 -14 -13 -7 7 -11 19 -9 25 9 22 23 14 23 -12z m-337 -17 c3 -12 -19 -37
-34 -38 -4 0 -6 11 -6 25 0 17 5 25 17 25 10 0 20 -6 23 -12z m-1269 -55 c32
-33 43 -49 34 -54 -7 -4 -17 -5 -23 -1 -5 4 -43 7 -82 7 -40 0 -73 2 -73 5 0
10 78 78 84 73 3 -4 6 -1 6 5 0 18 5 15 54 -35z m850 8 c-2 -2 4 -10 14 -17 9
-7 13 -14 7 -14 -5 -1 -18 -3 -27 -5 -10 -2 -18 2 -18 8 0 8 -3 8 -8 2 -7 -11
-72 -17 -72 -7 0 3 14 21 31 38 31 32 33 32 54 16 13 -9 21 -19 19 -21z m240
33 c9 -3 13 -10 10 -15 -3 -5 1 -9 9 -9 8 0 17 -7 21 -15 4 -12 -4 -15 -39
-16 -25 -1 -51 -2 -57 -3 -7 -1 -16 -1 -21 1 -9 5 18 33 33 33 6 0 9 4 6 9 -4
5 0 12 6 14 7 3 14 6 15 6 1 1 8 -2 17 -5z m479 -16 c9 -10 16 -18 15 -19 -17
-6 -80 -4 -84 2 -3 5 2 9 10 9 9 0 16 6 16 13 0 19 22 16 43 -5z m202 2 c10
-11 14 -20 9 -21 -57 -5 -70 -5 -77 -2 -8 5 30 43 43 43 4 0 15 -9 25 -20z
m-1469 -5 c4 -8 9 -13 13 -12 3 2 14 -4 24 -15 9 -10 14 -18 10 -19 -5 0 1 -4
12 -9 15 -6 5 -9 -35 -10 -30 -1 -74 -2 -98 -4 -23 -1 -48 2 -55 6 -9 6 -8 8
3 8 8 1 29 16 45 35 32 35 72 45 81 20z m304 -15 c16 -16 30 -32 30 -36 0 -3
-16 -4 -35 -2 -19 2 -35 1 -35 -2 0 -3 -16 -6 -35 -6 -42 0 -43 6 -7 45 34 38
44 38 82 1z m760 10 c22 -11 40 -22 40 -25 0 -5 -37 2 -50 10 -6 3 -10 2 -10
-4 0 -7 -41 -9 -69 -2 -3 1 42 40 47 41 1 0 21 -9 42 -20z m-1317 -130 c3 -3
-20 -29 -49 -58 -30 -29 -54 -48 -54 -41 0 7 -3 10 -6 7 -6 -7 -103 84 -98 92
3 7 201 6 207 0z m1444 -257 c1 -141 -2 -215 -9 -219 -5 -4 -14 -1 -18 6 -5 9
-13 9 -27 2 -19 -10 -19 -6 -19 201 0 117 3 214 8 217 4 3 20 6 35 5 l28 0 2
-212z m-1425 125 c1 -42 0 -80 -4 -83 -3 -3 -24 13 -47 36 l-41 42 33 37 c17
20 35 35 40 33 4 -2 7 1 7 8 0 7 2 10 4 8 3 -2 6 -39 8 -81z m-192 33 l39 -38
-40 -42 c-22 -22 -43 -41 -47 -41 -4 0 -7 12 -6 28 1 15 3 51 3 80 1 28 3 52
6 52 3 0 23 -17 45 -39z m86 -86 c4 -8 10 -12 15 -9 5 3 9 -2 9 -10 0 -9 7
-16 17 -16 9 0 13 -3 10 -6 -3 -4 5 -15 18 -26 14 -11 25 -22 25 -26 0 -5
-189 -8 -222 -3 -11 2 96 109 110 110 7 0 15 -6 18 -14z m94 -150 c0 -3 -25
-30 -56 -60 l-56 -53 -34 35 c-19 19 -34 40 -34 46 0 5 -3 7 -7 4 -8 -9 -34
13 -28 23 6 9 215 14 215 5z m-162 -167 c-13 -14 -26 -23 -30 -21 -4 2 -9 -5
-13 -16 -7 -22 -35 -36 -36 -18 -1 22 -2 72 0 126 l1 54 50 -51 51 -50 -23
-24z m181 96 c-8 -10 -8 -14 0 -14 6 0 11 -5 11 -11 0 -5 -6 -7 -12 -3 -10 6
-10 4 0 -8 9 -11 9 -18 3 -23 -7 -4 -6 -13 2 -26 10 -16 9 -21 -3 -29 -10 -6
-11 -10 -2 -10 6 0 12 -9 12 -20 0 -33 -20 -21 -83 47 l-29 31 24 24 c12 12
26 22 31 21 4 -2 7 4 7 12 0 8 7 15 15 15 8 0 15 5 15 11 0 5 5 7 10 4 8 -5 7
-11 -1 -21z m-65 -160 c58 -58 67 -70 41 -61 -8 4 -17 2 -21 -4 -4 -7 -10 -6
-19 1 -10 8 -15 8 -20 0 -5 -8 -10 -8 -20 0 -10 8 -15 8 -20 0 -5 -8 -10 -8
-20 0 -10 8 -15 8 -20 0 -4 -7 -11 -8 -18 -2 -16 12 -47 11 -47 -2 0 -6 -4 -6
-11 1 -8 8 3 26 42 67 30 30 59 55 65 56 6 0 37 -25 68 -56z m-12 -119 c5 -6
8 -5 8 3 0 6 5 12 11 12 5 0 7 -6 3 -12 -6 -10 -4 -10 8 0 9 7 19 9 22 4 7
-12 -84 -97 -104 -97 -19 0 -51 26 -44 37 3 4 1 8 -4 8 -15 0 -49 34 -45 45 4
13 136 13 145 0z m-172 -48 c0 -6 3 -8 6 -4 6 6 27 -13 68 -61 18 -21 18 -22
-38 -77 -31 -31 -57 -55 -57 -53 -6 15 -3 128 3 128 4 0 8 5 8 11 0 5 -4 7
-10 4 -5 -3 -10 -2 -10 4 0 5 5 13 10 16 6 4 7 12 3 18 -13 21 -11 36 3 30 8
-3 14 -10 14 -16z m261 -4 c6 -155 5 -183 -8 -183 -8 0 -12 4 -9 8 3 5 -6 15
-19 22 -13 7 -22 17 -19 22 3 4 2 8 -3 8 -4 0 -19 9 -31 18 l-24 19 49 51 c52
56 63 61 64 35z m-75 -168 c32 -30 51 -55 43 -56 -21 -1 -191 -1 -209 0 -14 1
87 111 102 111 4 0 33 -25 64 -55z m1550 -130 l49 -46 -63 3 c-34 2 -62 1 -62
-2 0 -3 -36 -4 -80 -2 l-79 3 36 36 c28 29 45 37 81 40 25 1 48 5 50 8 10 10
20 4 68 -40z m-1583 21 c37 1 67 0 67 -2 0 -15 -15 -34 -28 -34 -8 0 -12 -3
-9 -7 4 -3 -7 -16 -23 -28 -16 -12 -27 -25 -23 -28 3 -4 2 -7 -4 -7 -9 0 -113
96 -113 104 0 3 11 3 25 1 14 -1 25 3 25 9 0 7 3 8 8 1 4 -6 37 -10 75 -9z
m-129 -66 c20 -22 36 -37 36 -33 0 4 6 -2 14 -12 14 -19 11 -55 -5 -55 -5 0
-29 -20 -53 -45 -25 -25 -51 -45 -58 -45 -8 0 -9 3 -3 8 6 4 11 45 12 92 2
154 1 152 57 90z m251 -53 c0 -50 5 -95 10 -99 6 -5 5 -8 -3 -8 -7 0 -10 -4
-7 -10 10 -16 -5 -12 -31 9 -13 10 -21 21 -18 24 3 3 -4 8 -15 12 -11 3 -23
15 -26 26 -4 10 -11 17 -16 14 -5 -4 -9 1 -9 10 0 16 94 115 108 115 4 0 7
-42 7 -93z m-92 -102 c31 -30 57 -58 57 -63 0 -5 -13 -9 -30 -9 -16 0 -27 5
-23 10 4 6 1 7 -8 1 -21 -13 -80 -13 -72 0 5 8 3 8 -8 1 -12 -9 -51 -12 -93
-6 -6 0 15 25 46 55 31 30 54 57 50 60 -3 3 1 6 10 6 8 0 40 -25 71 -55z m55
-124 c25 -1 30 4 -85 -104 l-29 -27 -67 65 c-37 36 -67 66 -67 68 0 2 187 0
248 -2z m48 -174 l3 -122 -19 24 c-11 13 -20 21 -20 19 0 -2 -22 16 -48 41
-29 28 -44 49 -37 53 6 5 6 8 0 8 -5 0 1 7 15 15 14 8 22 14 18 15 -4 0 12 18
35 39 23 22 44 37 46 35 3 -2 6 -59 7 -127z"/>
</g>
</svg>
